PathFileType	4	(X/Y/Z)	Run_200 02
DataRate	CameraRate	NumFrames	NumMarkers	Units	OrigDataRate	OrigDataStartFrame	OrigNumFrames
100	100	4	45	mm	100	218	137
Frame#	Time	RASI			LPSI			RTH1			RTH2			RTH3			LTH1			LTH2			LTH3			RTB1			RTB2			RTB3			RLMAL			RMMAL			LTB1			LTB2			LTB3			RCAL			RTOE			RMT5			LCAL			LTOE			LMT5			LACR			RACR			CLAV			C7			LPSH			RUA1			RUA2			RUA3			RLEL			RMEL			LUA1			LUA2			LUA3			LLEL			LMEL			RFAsuperior			RFAradius			LFAsuperior			LFAradius			LFAulna			LASI			RFAulna			RPSI		
		X1	Y1	Z1	X2	Y2	Z2	X3	Y3	Z3	X4	Y4	Z4	X5	Y5	Z5	X6	Y6	Z6	X7	Y7	Z7	X8	Y8	Z8	X9	Y9	Z9	X10	Y10	Z10	X11	Y11	Z11	X12	Y12	Z12	X13	Y13	Z13	X14	Y14	Z14	X15	Y15	Z15	X16	Y16	Z16	X17	Y17	Z17	X18	Y18	Z18	X19	Y19	Z19	X20	Y20	Z20	X21	Y21	Z21	X22	Y22	Z22	X23	Y23	Z23	X24	Y24	Z24	X25	Y25	Z25	X26	Y26	Z26	X27	Y27	Z27	X28	Y28	Z28	X29	Y29	Z29	X30	Y30	Z30	X31	Y31	Z31	X32	Y32	Z32	X33	Y33	Z33	X34	Y34	Z34	X35	Y35	Z35	X36	Y36	Z36	X37	Y37	Z37	X38	Y38	Z38	X39	Y39	Z39	X40	Y40	Z40	X41	Y41	Z41	X42	Y42	Z42	X43	Y43	Z43	X44	Y44	Z44	X45	Y45	Z45	

218	  2.180000	1027.923208	1027.087904	-357.998454	854.209858	1056.630270	-519.058808	1007.017350	767.060211	-315.957189	1100.610011	721.479213	-347.093600	1064.375942	607.615771	-344.347710	954.867682	802.495407	-641.251553	1051.930414	709.609502	-629.101895	1022.519216	603.904150	-613.019333	1028.555501	399.311326	-370.346097	960.662652	406.158350	-323.079700	872.846080	308.043637	-343.791930	758.773776	274.138680	-313.939511	785.541487	256.140784	-392.932664	1056.745627	374.363929	-566.763869	945.669146	306.161123	-604.197763	963.249106	205.303867	-550.640312	704.306288	296.647008	-377.333467	820.289808	107.514313	-335.982270	765.594991	156.971602	-270.547518	802.752104	 89.989073	-516.792155	1031.576403	 69.293717	-522.229385	973.009798	 56.422138	-593.687822	977.148802	1507.703923	-667.643845	987.631093	1517.053269	-348.639287	1059.865639	1453.608656	-480.003588	938.862273	1537.195206	-508.509689	897.432589	1466.128005	-671.130443	946.587668	1375.267146	-246.226415	868.931276	1319.842365	-256.164644	880.295493	1272.291997	-203.536640	897.033544	1208.417778	-172.061523	859.997417	1186.303866	-247.854446	901.383810	1361.680998	-719.700092	856.743973	1274.188102	-692.209377	876.190924	1229.660495	-749.468617	888.982694	1155.154111	-768.262056	873.873870	1144.025218	-679.910549	937.406593	1135.612657	-181.118590	1098.835779	1071.757277	-286.800670	973.056429	1123.246419	-732.468485	1116.280273	1219.218566	-691.393481	1130.166255	1151.811901	-692.740578	1019.297937	1025.641685	-592.426396	1090.313760	1040.009851	-227.682845	858.486807	1053.143045	-430.110833	
219	  2.190000	1025.838905	1028.869538	-358.212490	850.907857	1057.798230	-517.992761	1009.068709	770.796671	-314.702253	1104.255372	727.916774	-345.878973	1071.262570	613.225370	-342.899300	949.847967	803.061900	-640.908408	1044.609992	708.476122	-628.425636	1012.762537	602.949030	-613.009652	1041.778416	403.079231	-368.336783	973.644220	406.806510	-322.557848	890.441131	304.887583	-343.777632	777.565859	266.633859	-314.772585	806.087038	248.668819	-393.272310	1041.881224	372.477580	-566.681430	929.440969	306.207559	-603.779700	945.406244	204.956846	-550.491113	722.073971	284.658540	-379.311807	848.867459	103.765225	-333.199974	791.017848	151.578126	-268.905753	782.673029	 91.057994	-516.721131	1011.551195	 68.996503	-522.303747	952.936462	 56.699394	-593.923753	979.300585	1510.635749	-666.812838	985.726201	1517.461939	-347.688628	1058.889206	1454.503179	-478.748809	938.402318	1538.656152	-507.957788	899.825321	1468.135781	-672.355543	940.352869	1376.216132	-246.205614	861.876759	1321.834798	-258.442417	870.727289	1274.263852	-205.486422	885.645526	1210.521121	-172.921948	851.342436	1188.335882	-249.913352	907.199555	1363.349203	-721.872873	863.811929	1274.820800	-694.252869	885.841896	1230.395451	-751.040392	901.213760	1156.232591	-769.256709	883.572880	1144.884593	-681.354452	926.000503	1137.609175	-180.473653	1089.693605	1071.590027	-280.549540	985.163910	1125.624255	-731.739823	1124.700035	1224.680496	-685.978842	1140.397457	1157.480841	-688.891196	1017.267128	1026.357750	-592.683403	1080.212611	1041.045488	-220.781555	854.177738	1054.961568	-428.402980	
220	  2.200000	1023.870330	1031.495920	-358.020005	848.204089	1059.716248	-517.085864	1010.483125	775.354160	-313.256104	1106.911464	735.000989	-344.374537	1076.990234	619.430171	-341.365560	944.978887	804.472997	-640.566396	1036.777297	707.893696	-627.672432	1001.976476	602.631599	-612.828053	1054.634114	407.042083	-366.859310	986.144726	407.330744	-321.876411	908.246526	301.213841	-343.765608	797.202057	257.808830	-315.638267	827.468640	240.450783	-393.409117	1026.138341	371.203034	-566.855586	912.413072	306.673516	-603.437066	927.279382	205.095519	-550.484442	740.884657	271.277114	-381.139906	878.620397	 99.889438	-330.949076	817.302706	145.215315	-267.533121	762.629746	 92.020639	-516.470481	991.445551	 68.806899	-522.350699	932.900322	 57.088909	-594.186474	981.457736	1514.356523	-665.787937	983.540396	1518.864642	-346.773843	1058.060888	1456.110456	-477.430493	938.035658	1540.822467	-507.362105	902.418524	1470.895290	-673.489694	933.738018	1378.620978	-245.949593	854.582812	1325.250881	-260.170155	861.049756	1277.785850	-206.850735	874.348307	1214.212990	-173.378418	842.442090	1191.788613	-251.327528	913.948992	1366.456039	-724.353719	870.540300	1276.975969	-695.992221	894.474892	1232.497268	-752.015170	912.496426	1158.509109	-769.699354	892.462783	1147.021845	-682.008612	914.692300	1141.512841	-179.693415	1081.066771	1075.604071	-274.521398	996.446776	1130.399854	-730.001578	1131.009699	1233.792685	-679.559581	1149.521906	1167.192208	-683.825729	1015.686892	1027.824407	-592.683782	1069.605716	1043.939671	-215.753775	851.463072	1057.331491	-427.972479	
221	  2.210000	1021.971536	1034.876634	-357.397742	846.999149	1062.470613	-516.921385	1011.426642	780.542247	-311.591822	1108.791750	742.316898	-342.690322	1081.566322	625.967726	-339.741999	939.996760	806.565027	-640.144462	1028.629299	707.812559	-626.827805	990.526153	603.073188	-612.554532	1067.052674	410.988195	-365.719979	998.244826	407.558938	-321.042932	926.366773	297.159316	-343.610219	817.668891	247.880317	-316.452865	849.541114	231.809599	-393.423045	1009.735433	370.655846	-567.029550	894.974871	307.650845	-603.115157	909.034364	205.826087	-550.555170	760.870878	256.841653	-382.803010	909.349790	 96.038993	-329.014174	844.356551	137.987949	-266.500106	742.702252	 92.874267	-516.146119	971.387524	 68.794758	-522.351186	912.899061	 57.449885	-594.292478	983.740673	1518.729038	-664.589097	980.966498	1521.320973	-345.989826	1057.278486	1458.540709	-476.002573	937.748071	1543.749052	-506.840568	905.183810	1474.637863	-674.642747	926.996251	1382.478705	-245.570291	847.507276	1330.089044	-261.535209	851.749185	1282.916785	-207.724270	863.541355	1219.431719	-173.563150	833.367484	1196.844079	-252.142307	921.075229	1370.727581	-726.356401	876.716562	1280.164966	-697.796313	902.614379	1235.688140	-752.732790	923.117806	1161.859303	-769.711232	900.612635	1150.271072	-682.124728	903.618386	1146.905389	-178.882197	1072.610047	1082.162162	-269.282096	1006.877026	1137.234071	-727.274495	1135.474663	1245.706379	-672.465729	1157.268958	1180.061143	-677.395130	1014.626078	1029.861437	-592.443898	1058.495857	1047.995163	-212.689643	850.065279	1060.382705	-428.437819	
